<svg width="16" height="15" viewBox="0 0 16 15" fill="none" xmlns="http://www.w3.org/2000/svg">
<path d="M8.11478 10.5859H12.7068C13.543 10.5859 14.2001 9.92041 14.2001 9.12428V2.86161C14.2001 2.06547 13.543 1.40001 12.7068 1.40001H2.62678C1.79052 1.40001 1.13345 2.06547 1.13345 2.86161V9.12428C1.13345 9.92041 1.79052 10.5859 2.62678 10.5859H4.12012V13.5333H4.12292L4.12478 13.5324L8.11572 10.5859H8.11478ZM4.68012 14.2828C4.48143 14.4293 4.23318 14.4919 3.9888 14.4571C3.74443 14.4224 3.52346 14.2931 3.37345 14.0971C3.2532 13.9387 3.18798 13.7453 3.18772 13.5464V11.5192H2.62772C1.28745 11.5192 0.20105 10.4468 0.20105 9.12428V2.86161C0.200117 1.53907 1.28652 0.466675 2.62678 0.466675H12.7068C14.047 0.466675 15.1334 1.53907 15.1334 2.86161V9.12428C15.1334 10.4477 14.047 11.5192 12.7068 11.5192H8.42278L4.67918 14.2828H4.68012Z" fill="#6F6F6F"/>
</svg>
