<svg width="15" height="17" viewBox="0 0 15 17" fill="none" xmlns="http://www.w3.org/2000/svg">
<path d="M6.0907 1.53713C6.8225 0.613067 8.22424 0.611341 8.95802 1.53392L14.0656 7.95525C14.8336 8.92047 14.1538 10.3466 12.9207 10.3587L11.533 10.3725L11.5318 15.0372C11.5317 15.2776 11.4843 15.5156 11.3922 15.7377C11.3001 15.9598 11.1652 16.1616 10.9951 16.3315C10.825 16.5014 10.6231 16.6361 10.4009 16.728C10.1787 16.8198 9.94059 16.867 9.70017 16.8668L5.34189 16.8628C4.85693 16.8623 4.39202 16.6692 4.04929 16.3261C3.70655 15.983 3.51402 15.5179 3.51398 15.033L3.51349 10.3735L2.15809 10.3727C0.919519 10.372 0.228632 8.94266 0.996914 7.97177L6.0907 1.53713ZM8.27576 2.07618C8.18587 1.96317 8.07161 1.87192 7.94151 1.80926C7.81141 1.74659 7.66884 1.71413 7.52443 1.7143C7.38003 1.71447 7.23753 1.74725 7.10758 1.81022C6.97762 1.87318 6.86357 1.96468 6.77394 2.07791L1.68016 8.51255C1.36392 8.91259 1.64812 9.50094 2.15833 9.50143L3.94951 9.50217C4.00674 9.50216 4.06341 9.51343 4.11629 9.53533C4.16916 9.55722 4.21721 9.58932 4.25767 9.62979C4.29814 9.67026 4.33024 9.7183 4.35214 9.77117C4.37403 9.82405 4.3853 9.88072 4.38529 9.93795L4.38505 15.033C4.38512 15.287 4.48604 15.5307 4.66564 15.7103C4.84523 15.89 5.08882 15.9911 5.34287 15.9913L9.70116 15.9952C9.82708 15.9953 9.95178 15.9706 10.0681 15.9225C10.1845 15.8744 10.2903 15.8038 10.3793 15.7148C10.4684 15.6258 10.5391 15.5201 10.5873 15.4038C10.6356 15.2875 10.6604 15.1628 10.6605 15.0369L10.6617 9.94091C10.6617 9.82609 10.707 9.71591 10.7877 9.63431C10.8685 9.5527 10.9782 9.50628 11.093 9.50513L12.9121 9.48738C13.4198 9.48245 13.6996 8.89509 13.3836 8.49776L8.27576 2.07618Z" fill="#6F6F6F"/>
</svg>
